<svg width="56" height="40" viewBox="0 0 56 40" fill="none" xmlns="http://www.w3.org/2000/svg">
<g filter="url(#filter0_d_1_726)">
<rect x="4.5" y="0.5" width="47" height="31" rx="3.5" fill="white" stroke="#E8ECEF"/>
<path fill-rule="evenodd" clip-rule="evenodd" d="M29.566 10.0329L27.0462 10.5737V8.53077L29.566 8V10.0329ZM19.3263 9.16151L16.8768 9.6822L16.8668 17.7029C16.8668 19.1849 17.9811 20.2763 19.4669 20.2763C20.2901 20.2763 20.8924 20.1261 21.2237 19.9459V17.9132C20.9025 18.0433 19.3163 18.504 19.3163 17.022V13.4672H21.2237V11.3344H19.3163L19.3263 9.16151ZM13.3932 13.3371C12.8611 13.3371 12.5399 13.4873 12.5399 13.8778C12.5399 14.3042 13.0928 14.4918 13.7787 14.7245C14.8969 15.1038 16.3686 15.6031 16.3748 17.4526C16.3748 19.245 14.9392 20.2764 12.8511 20.2764C11.9877 20.2764 11.0441 20.1061 10.1104 19.7056V17.3224C10.9537 17.783 12.0179 18.1235 12.8511 18.1235C13.4133 18.1235 13.8148 17.9733 13.8148 17.5127C13.8148 17.0404 13.2155 16.8245 12.492 16.5639C11.39 16.1669 10 15.6662 10 13.998C10 12.2256 11.3553 11.1642 13.3932 11.1642C14.2264 11.1642 15.0496 11.2944 15.8829 11.6248V13.978C15.1199 13.5674 14.1562 13.3371 13.3932 13.3371ZM24.3459 12.0754L24.1853 11.3344H22.0168V20.0961H24.5266V14.1582C25.1189 13.3872 26.1228 13.5274 26.434 13.6375V11.3344C26.1128 11.2143 24.9382 10.994 24.3459 12.0754ZM27.0462 11.3344H29.566V20.0961H27.0462V11.3344ZM46.1404 15.7503C46.1404 13.1869 44.8956 11.1642 42.5163 11.1642C40.127 11.1642 38.6814 13.1869 38.6814 15.7303C38.6814 18.7443 40.388 20.2663 42.8376 20.2663C44.0322 20.2663 44.9357 19.996 45.6184 19.6155V17.6128C44.9357 17.9532 44.1527 18.1635 43.1588 18.1635C42.185 18.1635 41.3217 17.8231 41.2112 16.6415H46.1203C46.1203 16.5863 46.1239 16.4609 46.1281 16.3165L46.1281 16.3156C46.1338 16.1195 46.1404 15.8885 46.1404 15.7503ZM41.1814 14.7992C41.1814 13.6676 41.8741 13.1969 42.5066 13.1969C43.1189 13.1969 43.7715 13.6676 43.7715 14.7992H41.1814ZM32.8385 11.9452C33.1899 11.6248 33.8223 11.1642 34.8061 11.1642C36.563 11.1642 38.2194 12.7463 38.2295 15.6502C38.2295 18.8244 36.5931 20.2663 34.7961 20.2663C33.9127 20.2663 33.3806 19.8959 33.0192 19.6355L33.0092 22.4693L30.4994 23V11.3244H32.708L32.8385 11.9452ZM33.019 17.5932C33.2599 17.8536 33.6113 18.0639 34.2036 18.0639C35.1272 18.0639 35.7496 17.0625 35.7496 15.7205C35.7496 14.4086 35.1172 13.3872 34.2036 13.3872C33.6314 13.3872 33.27 13.5874 33.009 13.8779L33.019 17.5932Z" fill="#6461FC"/>
</g>
<defs>
<filter id="filter0_d_1_726" x="0" y="0" width="56" height="40" filterUnits="userSpaceOnUse" color-interpolation-filters="sRGB">
<feFlood flood-opacity="0" result="BackgroundImageFix"/>
<feColorMatrix in="SourceAlpha" type="matrix" values="0 0 0 0 0 0 0 0 0 0 0 0 0 0 0 0 0 0 127 0" result="hardAlpha"/>
<feOffset dy="4"/>
<feGaussianBlur stdDeviation="2"/>
<feComposite in2="hardAlpha" operator="out"/>
<feColorMatrix type="matrix" values="0 0 0 0 0 0 0 0 0 0 0 0 0 0 0 0 0 0 0.25 0"/>
<feBlend mode="normal" in2="BackgroundImageFix" result="effect1_dropShadow_1_726"/>
<feBlend mode="normal" in="SourceGraphic" in2="effect1_dropShadow_1_726" result="shape"/>
</filter>
</defs>
</svg>
